<svg xmlns="http://www.w3.org/2000/svg" version="1.1" xmlns:xlink="http://www.w3.org/1999/xlink" xmlns:svgjs="http://svgjs.dev/svgjs" width="2000" height="1500" viewBox="0 0 2000 1500"><rect width="2000" height="1500" fill="#ffffff"></rect><g transform="matrix(0.75,0,0,0.75,249.09203497961096,541.4680980596553)"><svg viewBox="0 0 396 110" data-background-color="#ffffff" preserveAspectRatio="xMidYMid meet" height="555" width="2000" xmlns="http://www.w3.org/2000/svg" xmlns:xlink="http://www.w3.org/1999/xlink"><g id="tight-bounds" transform="matrix(1,0,0,1,0.2399599999999964,0.10764336733643631)"><svg viewBox="0 0 395.52 109.78471326532716" height="109.78471326532716" width="395.52"><rect width="395.52033723461733" height="109.7848269907707" fill="url(#65da6eec-f5a9-423a-a8d6-335aa6f16798)" mask="url(#7401179f-87c1-4317-90bd-db4e1ffe8bfd)" data-fill-palette-color="tertiary"></rect><g><svg viewBox="0 0 395.52 109.78471326532716" height="109.78471326532716" width="395.52"><g><svg viewBox="0 0 395.52 109.78471326532716" height="109.78471326532716" width="395.52"><g id="textblocktransform"><svg viewBox="0 0 395.52 109.78471326532716" height="109.78471326532716" width="395.52" id="textblock"><g><svg viewBox="0 0 395.52 109.78471326532716" height="109.78471326532716" width="395.52"><path d="M394.594 23.547C392.735 12.151 387.435 8.983 387.435 8.983 371.165-2.754 350.86-0.225 332.619 1.462 300.414 1.53 268.339 4.037 236.208 5.382 168.767 5.587 100.749 2.214 33.643 10.533 27.339 13.086-6.54 11.034 1.121 25.005 3.129 30.817 10.456 37.267 10.232 42.6 11.236 43.535 12.631 41.392 13.226 42.737 15.309 46.361 18.711 44.651 21.501 46.794 17.614 52.514 20.403 57.278 23.062 62.269 18.377 63.568 12.371 62.953 9.675 67.26 9.396 70.383 7.89 69.79 6.235 69.653 5.026 69.562 2.59 69.904 2.999 70.884 4.394 74.234-1.594 76.172 2.162 79.454-0.422 83.009 3.948 86.086 3.353 89.938 3.278 90.712 3.687 91.373 4.338 91.556 7.22 92.536 3.018 94.45 3.464 96.524 33.029 110.7 65.104 100.9 95.394 107.418 103.259 102.86 97.346 109.037 100.489 108.079 102.943 106.963 104.728 111.589 107.499 108.968 107.927 108.216 107.276 106.438 108.8 106.78 109.6 106.963 110.307 106.917 110.418 105.869 110.586 104.296 109.117 105.276 108.726 104.456 112.947 100.308 111.906 110.176 115.866 109.766 115.68 108.558 114.528 106.826 116.889 107.054 119.232 105.322 119.306 103.886 121.389 107.783 121.463 108.626 121.835 109.219 122.43 109.629 128.938 105.39 135.409 111.133 142.233 109.219 146.417 107.122 150.433 110.359 154.672 109.561 156.16 108.923 157.666 107.783 159.098 109.698 176.632 110.108 195.319 108.398 211.943 109.766 256.364 107.213 303.836 110.814 350.674 107.441 361.719 106.142 373.192 104.296 383.958 102.815 383.958 102.815 392.679 98.758 392.679 80.525S394.538 64.571 394.817 50.053C395.096 35.535 396.398 34.942 394.538 23.547Z" opacity="1" fill="url(#65da6eec-f5a9-423a-a8d6-335aa6f16798)" data-fill-palette-color="tertiary"></path><g transform="matrix(1,0,0,1,55.76832,26.230666666666668)"><svg width="283.98335999999995" viewBox="3 -32.3 161.74 32.65" height="57.32337993199381" data-palette-color="#ffffff"><path d="M33.25-32.05L36.4 0 32.8 0 32.05-9.75 30.35-25.7 30-25.7 21.1-3.7 17.8-3.7 9.35-25.7 8.95-25.7 7.25-10.05 6.4 0 3 0 6.35-32.05 10.9-32.05 12.55-27.15 19.5-8.9 19.8-8.9 27.1-27.45 28.75-32.05 33.25-32.05ZM52.65-8.7L52.6-7.15 52.75 0 49 0 49.2-7.15 49.15-8.7 40.7-24.9 44.8-24.9 45.3-23.45 50.9-12.75 51.15-12.75 57.25-23.3 57.9-24.9 61.9-24.9 52.65-8.7ZM76.5-32.3Q79.95-32.3 83.65-30.8L83.65-30.8 83-26.95 82.3-26.75Q80.85-27.85 79.22-28.45 77.6-29.05 76-29.05L76-29.05Q74.15-29.05 72.77-28.3 71.4-27.55 70.67-26.35 69.95-25.15 69.95-23.85L69.95-23.85Q69.95-22.5 70.77-21.48 71.6-20.45 72.85-19.7 74.1-18.95 76.25-17.9L76.25-17.9Q78.95-16.65 80.6-15.58 82.25-14.5 83.42-12.85 84.6-11.2 84.6-8.85L84.6-8.85Q84.6-6.35 83.25-4.25 81.9-2.15 79.45-0.9 77 0.35 73.85 0.35L73.85 0.35Q71.75 0.35 69.47-0.23 67.2-0.8 65.25-1.9L65.25-1.9 65.75-6 66.3-6.25Q68.05-4.55 70.17-3.73 72.3-2.9 74.25-2.9L74.25-2.9Q76.15-2.9 77.62-3.65 79.1-4.4 79.87-5.65 80.65-6.9 80.65-8.3L80.65-8.3Q80.65-10.4 79.05-11.68 77.45-12.95 74.2-14.45L74.2-14.45Q71.55-15.75 69.95-16.78 68.35-17.8 67.2-19.43 66.05-21.05 66.05-23.4L66.05-23.4Q66.05-25.85 67.37-27.9 68.7-29.95 71.07-31.13 73.45-32.3 76.5-32.3L76.5-32.3ZM112.09-24.9L111.94-7.8 112.04 0 108.34 0 108.49-7.5 108.44-10.9 94.89-10.85 94.84-7.8 94.94 0 91.24 0 91.39-7.5 91.24-24.9 94.99-24.9 94.89-14.2 101.64-14.15 108.44-14.2 108.34-24.9 112.09-24.9ZM129.99-25.2Q135.44-25.2 138.37-22 141.29-18.8 141.29-12.95L141.29-12.95Q141.29-6.6 138.17-3.13 135.04 0.35 129.24 0.35L129.24 0.35Q123.84 0.35 120.89-2.93 117.94-6.2 117.94-12.25L117.94-12.25Q117.94-18.45 121.09-21.83 124.24-25.2 129.99-25.2L129.99-25.2ZM129.64-22.05Q125.69-22.05 123.77-19.8 121.84-17.55 121.84-12.7L121.84-12.7Q121.84-7.5 123.74-5.15 125.64-2.8 129.54-2.8L129.54-2.8Q133.54-2.8 135.49-5.1 137.44-7.4 137.44-12.3L137.44-12.3Q137.44-17.35 135.52-19.7 133.59-22.05 129.64-22.05L129.64-22.05ZM156.54-24.95Q160.49-24.95 162.61-23.05 164.74-21.15 164.74-17.55L164.74-17.55Q164.74-13.35 162.06-10.98 159.39-8.6 154.69-8.6L154.69-8.6 151.64-8.6 151.64-7.8 151.74 0 148.04 0 148.19-7.5 148.04-24.9 156.54-24.95ZM155.89-11.5Q160.84-12.35 160.84-17.25L160.84-17.25Q160.84-19.6 159.51-20.75 158.19-21.9 155.54-22L155.54-22 151.74-21.95 151.69-11.6 155.89-11.5Z" opacity="1" transform="matrix(1,0,0,1,0,0)" fill="#ffffff" class="wordmark-text-0" data-fill-palette-color="quaternary" id="text-0"></path></svg></g></svg></g></svg></g></svg></g><g></g></svg></g><defs></defs><mask id="7401179f-87c1-4317-90bd-db4e1ffe8bfd"><g id="SvgjsG1037"><svg viewBox="0 0 395.52 109.78471326532716" height="109.78471326532716" width="395.52"><g><svg viewBox="0 0 395.52 109.78471326532716" height="109.78471326532716" width="395.52"><g><svg viewBox="0 0 395.52 109.78471326532716" height="109.78471326532716" width="395.52"><g id="SvgjsG1036"><svg viewBox="0 0 395.52 109.78471326532716" height="109.78471326532716" width="395.52" id="SvgjsSvg1035"><g><svg viewBox="0 0 395.52 109.78471326532716" height="109.78471326532716" width="395.52"><path d="M394.594 23.547C392.735 12.151 387.435 8.983 387.435 8.983 371.165-2.754 350.86-0.225 332.619 1.462 300.414 1.53 268.339 4.037 236.208 5.382 168.767 5.587 100.749 2.214 33.643 10.533 27.339 13.086-6.54 11.034 1.121 25.005 3.129 30.817 10.456 37.267 10.232 42.6 11.236 43.535 12.631 41.392 13.226 42.737 15.309 46.361 18.711 44.651 21.501 46.794 17.614 52.514 20.403 57.278 23.062 62.269 18.377 63.568 12.371 62.953 9.675 67.26 9.396 70.383 7.89 69.79 6.235 69.653 5.026 69.562 2.59 69.904 2.999 70.884 4.394 74.234-1.594 76.172 2.162 79.454-0.422 83.009 3.948 86.086 3.353 89.938 3.278 90.712 3.687 91.373 4.338 91.556 7.22 92.536 3.018 94.45 3.464 96.524 33.029 110.7 65.104 100.9 95.394 107.418 103.259 102.86 97.346 109.037 100.489 108.079 102.943 106.963 104.728 111.589 107.499 108.968 107.927 108.216 107.276 106.438 108.8 106.78 109.6 106.963 110.307 106.917 110.418 105.869 110.586 104.296 109.117 105.276 108.726 104.456 112.947 100.308 111.906 110.176 115.866 109.766 115.68 108.558 114.528 106.826 116.889 107.054 119.232 105.322 119.306 103.886 121.389 107.783 121.463 108.626 121.835 109.219 122.43 109.629 128.938 105.39 135.409 111.133 142.233 109.219 146.417 107.122 150.433 110.359 154.672 109.561 156.16 108.923 157.666 107.783 159.098 109.698 176.632 110.108 195.319 108.398 211.943 109.766 256.364 107.213 303.836 110.814 350.674 107.441 361.719 106.142 373.192 104.296 383.958 102.815 383.958 102.815 392.679 98.758 392.679 80.525S394.538 64.571 394.817 50.053C395.096 35.535 396.398 34.942 394.538 23.547Z" opacity="1" fill="white"></path><g transform="matrix(1,0,0,1,55.76832,26.230666666666668)"><svg width="283.98335999999995" viewBox="3 -32.3 161.74 32.65" height="57.32337993199381" data-palette-color="#ffffff"></svg></g></svg></g></svg></g></svg></g><g></g></svg></g><defs><mask></mask></defs></svg></g></mask><linearGradient x1="0" x2="1" y1="0.548" y2="0.55" id="65da6eec-f5a9-423a-a8d6-335aa6f16798"><stop stop-color="#ff6cab" offset="0"></stop><stop stop-color="#7366ff" offset="1"></stop></linearGradient></svg><rect width="395.52" height="109.78471326532716" fill="none" stroke="none" visibility="hidden"></rect></g></svg></g></svg>