<svg xmlns="http://www.w3.org/2000/svg" version="1.1" xmlns:xlink="http://www.w3.org/1999/xlink" xmlns:svgjs="http://svgjs.dev/svgjs" width="2000" height="1247" viewBox="0 0 2000 1247"><g transform="matrix(1,0,0,1,-1.2121212121212466,0.504858299595071)"><svg viewBox="0 0 396 247" data-background-color="#ffffff" preserveAspectRatio="xMidYMid meet" height="1247" width="2000" xmlns="http://www.w3.org/2000/svg" xmlns:xlink="http://www.w3.org/1999/xlink"><g id="tight-bounds" transform="matrix(1,0,0,1,0.2400000000000091,-0.09999999999999432)"><svg viewBox="0 0 395.52 247.2" height="247.2" width="395.52"><g><svg></svg></g><g><svg viewBox="0 0 395.52 247.2" height="247.2" width="395.52"><g transform="matrix(1,0,0,1,75.54432,100.08594326713644)"><svg viewBox="0 0 244.43135999999998 47.028113465727095" height="47.028113465727095" width="244.43135999999998"><g><svg viewBox="0 0 244.43135999999998 47.028113465727095" height="47.028113465727095" width="244.43135999999998"><g><svg viewBox="0 0 244.43136 47.0281134657271" height="47.028113465727095" width="244.43135999999998"><g><svg viewBox="0 0 244.43136 47.0281134657271" height="47.0281134657271" width="244.43136"><g id="textblocktransform"><svg viewBox="0 0 244.43136 47.0281134657271" height="47.0281134657271" width="244.43136" id="textblock"><g><svg viewBox="0 0 244.43136 47.0281134657271" height="47.0281134657271" width="244.43136"><g transform="matrix(1,0,0,1,0,0)"><svg width="244.43136" viewBox="2.9000000953674316 -35.349998474121094 234.1300048828125 45.04999923706055" height="47.0281134657271" data-palette-color="#31c48d"><path d="M21.85-32.35L21.85-32.35 21.85-27.25Q18.5-29.35 14.25-29.35L14.25-29.35Q11.5-29.35 9.93-28.13 8.35-26.9 8.35-24.9 8.35-22.9 9.9-21.7 11.45-20.5 14.65-19.1L14.65-19.1Q16.75-18.2 17.93-17.55 19.1-16.9 20.63-15.73 22.15-14.55 22.88-12.93 23.6-11.3 23.6-9.2L23.6-9.2Q23.6-4.75 20.45-2.2 17.3 0.35 12.3 0.35L12.3 0.35Q6.75 0.35 3.1-1.8L3.1-1.8 3.1-7.15Q7.05-4.2 12.25-4.2L12.25-4.2Q15-4.2 16.6-5.48 18.2-6.75 18.2-9L18.2-9Q18.2-10.35 17.25-11.48 16.3-12.6 15.2-13.18 14.1-13.75 11.9-14.75L11.9-14.75Q10.6-15.35 10.08-15.6 9.55-15.85 8.35-16.5 7.15-17.15 6.58-17.6 6-18.05 5.15-18.85 4.3-19.65 3.93-20.45 3.55-21.25 3.23-22.33 2.9-23.4 2.9-24.65L2.9-24.65Q2.9-28.95 6.03-31.45 9.15-33.95 14.1-33.95L14.1-33.95Q18.65-33.95 21.85-32.35ZM29.5-35.35L34.4-35.35 34.4-21Q36.55-25.7 42.25-25.7L42.25-25.7Q45.95-25.7 48.2-23.4 50.45-21.1 50.45-17L50.45-17 50.45 0 45.55 0 45.55-16Q45.55-18.6 44.22-20.03 42.9-21.45 40.75-21.45L40.75-21.45Q38.25-21.45 36.32-19.55 34.4-17.65 34.4-13.75L34.4-13.75 34.4 0 29.5 0 29.5-35.35ZM67.64 0.45L67.64 0.45Q62.05 0.45 58.84-3.2 55.64-6.85 55.64-12.45L55.64-12.45Q55.64-18.15 58.95-21.93 62.24-25.7 67.64-25.7L67.64-25.7Q73.44-25.7 76.59-22.03 79.75-18.35 79.75-12.65 79.75-6.95 76.52-3.25 73.3 0.45 67.64 0.45ZM67.59-21.55L67.59-21.55Q64.34-21.55 62.55-18.98 60.74-16.4 60.74-12.6L60.74-12.6Q60.74-8.85 62.59-6.28 64.44-3.7 67.64-3.7L67.64-3.7Q71.05-3.7 72.82-6.2 74.59-8.7 74.59-12.55L74.59-12.55Q74.59-16.5 72.89-19.03 71.19-21.55 67.59-21.55ZM96.94-3.95L96.94-3.95Q99.89-3.95 101.79-6.28 103.69-8.6 103.69-12.8L103.69-12.8Q103.69-16.75 101.84-19.07 99.99-21.4 97.14-21.4 94.29-21.4 92.22-19.33 90.14-17.25 90.14-12.75L90.14-12.75Q90.14-8.35 92.22-6.15 94.29-3.95 96.94-3.95ZM85.24-25.35L90.14-25.35 90.14-21.45Q92.74-25.7 97.94-25.7L97.94-25.7Q102.94-25.7 105.84-22.08 108.74-18.45 108.74-12.85L108.74-12.85Q108.74-7.1 105.77-3.38 102.79 0.35 97.84 0.35L97.84 0.35Q92.79 0.35 90.14-3.85L90.14-3.85 90.14 9.7 85.24 9.7 85.24-25.35ZM125.64-11.25L113.44-11.25 113.44-15.45 125.64-15.45 125.64-11.25ZM150.14-32.35L150.14-32.35 150.14-27.25Q146.79-29.35 142.54-29.35L142.54-29.35Q139.79-29.35 138.21-28.13 136.64-26.9 136.64-24.9 136.64-22.9 138.19-21.7 139.74-20.5 142.94-19.1L142.94-19.1Q145.04-18.2 146.21-17.55 147.39-16.9 148.91-15.73 150.44-14.55 151.16-12.93 151.89-11.3 151.89-9.2L151.89-9.2Q151.89-4.75 148.74-2.2 145.59 0.35 140.59 0.35L140.59 0.35Q135.04 0.35 131.39-1.8L131.39-1.8 131.39-7.15Q135.34-4.2 140.54-4.2L140.54-4.2Q143.29-4.2 144.89-5.48 146.49-6.75 146.49-9L146.49-9Q146.49-10.35 145.54-11.48 144.59-12.6 143.49-13.18 142.39-13.75 140.19-14.75L140.19-14.75Q138.89-15.35 138.36-15.6 137.84-15.85 136.64-16.5 135.44-17.15 134.86-17.6 134.29-18.05 133.44-18.85 132.59-19.65 132.21-20.45 131.84-21.25 131.51-22.33 131.19-23.4 131.19-24.65L131.19-24.65Q131.19-28.95 134.31-31.45 137.44-33.95 142.39-33.95L142.39-33.95Q146.94-33.95 150.14-32.35ZM157.79-35.35L162.69-35.35 162.69-21Q164.84-25.7 170.54-25.7L170.54-25.7Q174.24-25.7 176.49-23.4 178.74-21.1 178.74-17L178.74-17 178.74 0 173.84 0 173.84-16Q173.84-18.6 172.51-20.03 171.19-21.45 169.04-21.45L169.04-21.45Q166.54-21.45 164.61-19.55 162.69-17.65 162.69-13.75L162.69-13.75 162.69 0 157.79 0 157.79-35.35ZM195.93 0.45L195.93 0.45Q190.33 0.45 187.13-3.2 183.93-6.85 183.93-12.45L183.93-12.45Q183.93-18.15 187.23-21.93 190.53-25.7 195.93-25.7L195.93-25.7Q201.73-25.7 204.88-22.03 208.03-18.35 208.03-12.65 208.03-6.95 204.81-3.25 201.58 0.45 195.93 0.45ZM195.88-21.55L195.88-21.55Q192.63-21.55 190.83-18.98 189.03-16.4 189.03-12.6L189.03-12.6Q189.03-8.85 190.88-6.28 192.73-3.7 195.93-3.7L195.93-3.7Q199.33-3.7 201.11-6.2 202.88-8.7 202.88-12.55L202.88-12.55Q202.88-16.5 201.18-19.03 199.48-21.55 195.88-21.55ZM225.23-3.95L225.23-3.95Q228.18-3.95 230.08-6.28 231.98-8.6 231.98-12.8L231.98-12.8Q231.98-16.75 230.13-19.07 228.28-21.4 225.43-21.4 222.58-21.4 220.51-19.33 218.43-17.25 218.43-12.75L218.43-12.75Q218.43-8.35 220.51-6.15 222.58-3.95 225.23-3.95ZM213.53-25.35L218.43-25.35 218.43-21.45Q221.03-25.7 226.23-25.7L226.23-25.7Q231.23-25.7 234.13-22.08 237.03-18.45 237.03-12.85L237.03-12.85Q237.03-7.1 234.06-3.38 231.08 0.35 226.13 0.35L226.13 0.35Q221.08 0.35 218.43-3.85L218.43-3.85 218.43 9.7 213.53 9.7 213.53-25.35Z" opacity="1" transform="matrix(1,0,0,1,0,0)" fill="#31c48d" class="wordmark-text-0" data-fill-palette-color="primary" id="text-0"></path></svg></g></svg></g></svg></g></svg></g></svg></g></svg></g></svg></g><path d="M206.588 94.086L206.588 33.024 387.74 33.024 387.74 214.176 206.588 214.176 206.588 153.114 210.829 153.114 210.829 209.935 383.499 209.935 383.499 37.265 210.829 37.265 210.829 94.086Z" fill="#31c48d" stroke="transparent" data-fill-palette-color="primary"></path></svg></g><defs></defs></svg><rect width="395.52" height="247.2" fill="none" stroke="none" visibility="hidden"></rect></g></svg></g></svg>