<svg xmlns="http://www.w3.org/2000/svg" version="1.1" xmlns:xlink="http://www.w3.org/1999/xlink" xmlns:svgjs="http://svgjs.dev/svgjs" width="2000" height="544" viewBox="0 0 2000 544"><g transform="matrix(1,0,0,1,0.3398876404492057,-0.6074513408252642)"><svg viewBox="0 0 356 97" data-background-color="#ffffff" preserveAspectRatio="xMidYMid meet" height="544" width="2000" xmlns="http://www.w3.org/2000/svg" xmlns:xlink="http://www.w3.org/1999/xlink"><g id="tight-bounds" transform="matrix(1,0,0,1,-0.06049999999996203,0.10831393393391409)"><svg viewBox="0 0 356.12052 96.78337213213214" height="96.78337213213214" width="356.12052"><g><svg viewBox="0 0 356.12052 96.78337213213214" height="96.78337213213214" width="356.12052"><g><svg viewBox="0 0 356.12052 96.78337213213214" height="96.78337213213214" width="356.12052"><g><path d="M0 96.783v-96.783h356.121v96.783z" fill="#31c48d" stroke="transparent" stroke-width="0" rx="0%" data-fill-palette-color="tertiary"></path><path d="M3.283 93.5v-90.217h349.554v90.217z" fill="#ffffff" stroke="transparent" stroke-width="0" rx="0%" data-fill-palette-color="quaternary"></path><path d="M9.85 86.933v-77.083h336.421v77.083z" fill="#31c48d" stroke="transparent" stroke-width="0" data-fill-palette-color="tertiary"></path></g><g transform="matrix(1,0,0,1,19.69974,19.69974)" id="textblocktransform"><svg viewBox="0 0 316.72104 57.38389213213214" height="57.38389213213214" width="316.72104" id="textblock"><g><svg viewBox="0 0 316.72104 57.38389213213214" height="57.38389213213214" width="316.72104"><g transform="matrix(1,0,0,1,0,0)"><svg width="316.72104" viewBox="1.95 -35.35 249.73000000000002 45.25" height="57.38389213213214" data-palette-color="#ffffff"><path d="M22.7-32.2L22.7-32.2 22.7-25Q18.65-27.35 14.3-27.35L14.3-27.35Q12.35-27.35 11.33-26.55 10.3-25.75 10.3-24.5 10.3-23.25 11.55-22.28 12.8-21.3 15.3-20.2L15.3-20.2Q16.85-19.5 17.88-18.98 18.9-18.45 20.23-17.53 21.55-16.6 22.33-15.58 23.1-14.55 23.65-13.05 24.2-11.55 24.2-9.8L24.2-9.8Q24.2-5.25 20.85-2.43 17.5 0.4 11.95 0.4L11.95 0.4Q6 0.4 2.25-1.7L2.25-1.7 2.25-9.45Q6.8-6.15 11.95-6.15L11.95-6.15Q13.7-6.15 14.85-7.08 16-8 16-9.5L16-9.5Q16-10 15.85-10.45 15.7-10.9 15.3-11.3 14.9-11.7 14.53-11.98 14.15-12.25 13.43-12.63 12.7-13 12.2-13.25 11.7-13.5 10.73-13.95 9.75-14.4 9.15-14.65L9.15-14.65Q5.9-16.15 3.93-18.35 1.95-20.55 1.95-24.2L1.95-24.2Q1.95-28.55 5.15-31.23 8.35-33.9 14-33.9L14-33.9Q19.05-33.9 22.7-32.2ZM28.7-35.35L36-35.35 36-21.05Q37.95-25.6 43.6-25.6L43.6-25.6Q47.3-25.6 49.62-23.25 51.95-20.9 51.95-16.15L51.95-16.15 51.95 0 44.65 0 44.65-15Q44.65-17.2 43.55-18.45 42.45-19.7 40.7-19.7L40.7-19.7Q39.95-19.7 39.27-19.48 38.6-19.25 37.8-18.68 37-18.1 36.5-16.73 36-15.35 36-13.4L36-13.4 36 0 28.7 0 28.7-35.35ZM68.9 0.4L68.9 0.4Q62.95 0.4 59.7-3.18 56.45-6.75 56.45-12.35L56.45-12.35Q56.45-18.2 59.85-21.98 63.25-25.75 68.9-25.75L68.9-25.75Q74.8-25.75 78.05-22.1 81.3-18.45 81.3-12.8L81.3-12.8Q81.3-7.05 78.02-3.33 74.75 0.4 68.9 0.4ZM68.85-20L68.85-20Q66.45-20 65.25-17.95 64.05-15.9 64.05-12.65 64.05-9.4 65.27-7.33 66.5-5.25 68.95-5.25L68.95-5.25Q71.35-5.25 72.52-7.28 73.7-9.3 73.7-12.55L73.7-12.55Q73.7-20 68.85-20ZM99.04-5.8L99.04-5.8Q101.44-5.8 102.94-7.63 104.44-9.45 104.44-12.6L104.44-12.6Q104.44-16.05 102.92-17.82 101.39-19.6 99.04-19.6L99.04-19.6Q96.74-19.6 95.04-17.85 93.34-16.1 93.34-12.95L93.34-12.95Q93.34-9.7 94.94-7.75 96.54-5.8 99.04-5.8ZM86.04-25.35L93.34-25.35 93.34-21.45Q95.99-25.65 100.99-25.65L100.99-25.65Q105.89-25.65 108.87-22.18 111.84-18.7 111.84-12.75L111.84-12.75Q111.84-7.1 108.97-3.4 106.09 0.3 100.99 0.3L100.99 0.3Q95.84 0.3 93.34-3.75L93.34-3.75 93.34 9.35 86.04 9.35 86.04-25.35ZM129.19-10.1L115.84-10.1 115.84-16.1 129.19-16.1 129.19-10.1ZM142.39-13.95L142.39-6.15 146.44-6.15Q152.14-6.15 152.14-10.05 152.14-13.95 146.49-13.95L146.49-13.95 142.39-13.95ZM146.49-27.55L142.39-27.55 142.39-20 145.24-20Q148.24-20 149.76-21.1 151.29-22.2 151.29-24L151.29-24Q151.29-27.55 146.49-27.55L146.49-27.55ZM134.69 0L134.69-33.7 147.79-33.7Q153.34-33.7 156.24-31.08 159.14-28.45 159.14-24.4L159.14-24.4Q159.14-21.75 157.74-19.75 156.34-17.75 154.09-17.05L154.09-17.05Q159.94-15.3 159.94-9.15L159.94-9.15Q159.94-5.15 157.06-2.58 154.19 0 149.24 0L149.24 0 134.69 0ZM170.54-15L179.34-15 179.34-15.6Q178.99-20.05 175.44-20.05L175.44-20.05Q173.69-20.05 172.34-18.78 170.99-17.5 170.54-15L170.54-15ZM184.59-7.55L184.59-7.55 184.59-1.45Q181.99 0.25 176.64 0.25L176.64 0.25Q170.39 0.25 166.91-3.38 163.44-7 163.44-12.7L163.44-12.7Q163.44-18.75 166.81-22.18 170.19-25.6 175.14-25.6L175.14-25.6Q180.24-25.6 183.19-22.63 186.14-19.65 186.14-13.75L186.14-13.75Q186.14-12.6 185.74-9.8L185.74-9.8 170.84-9.8Q171.59-7.7 173.44-6.55 175.29-5.4 177.89-5.4L177.89-5.4Q181.74-5.4 184.59-7.55ZM191.33-25.35L198.58-25.35 198.58-20.65Q199.28-22.85 200.91-24.18 202.53-25.5 204.68-25.5L204.68-25.5Q205.88-25.5 206.58-25.3L206.58-25.3 206.58-18.4Q205.38-18.95 203.83-18.95L203.83-18.95Q201.48-18.95 200.03-17.23 198.58-15.5 198.58-12.65L198.58-12.65 198.58 0 191.28 0 191.33-25.35ZM209.83-25.35L217.08-25.35 217.08-20.65Q217.78-22.85 219.41-24.18 221.03-25.5 223.18-25.5L223.18-25.5Q224.38-25.5 225.08-25.3L225.08-25.3 225.08-18.4Q223.88-18.95 222.33-18.95L222.33-18.95Q219.98-18.95 218.53-17.23 217.08-15.5 217.08-12.65L217.08-12.65 217.08 0 209.78 0 209.83-25.35ZM235.38-0.4L235.38-0.4 225.58-25.35 233.53-25.35 236.28-17.45Q237.33-14.4 238-12.2 238.68-10 238.83-9.3L238.83-9.3 238.98-8.6Q239.53-10.6 241.68-17.45L241.68-17.45 244.18-25.35 251.68-25.35 242.53-0.75Q238.58 9.9 230.48 9.9L230.48 9.9Q228.93 9.9 227.68 9.65L227.68 9.65 227.68 3.85Q228.48 4.05 229.38 4.05L229.38 4.05Q233.53 4.05 235.38-0.4Z" opacity="1" transform="matrix(1,0,0,1,0,0)" fill="#ffffff" class="wordmark-text-0" data-fill-palette-color="quaternary" id="text-0"></path></svg></g></svg></g></svg></g></svg></g><g></g></svg></g><defs></defs></svg><rect width="356.12052" height="96.78337213213214" fill="none" stroke="none" visibility="hidden"></rect></g></svg></g></svg>